<?xml version="1.0" encoding="utf-8"?>
<!-- Generator: Adobe Illustrator 23.1.0, SVG Export Plug-In . SVG Version: 6.00 Build 0)  -->
<svg version="1.1" id="Layer_1" xmlns="http://www.w3.org/2000/svg" xmlns:xlink="http://www.w3.org/1999/xlink" x="0px" y="0px"
	 viewBox="0 0 2000 231.25" style="enable-background:new 0 0 2000 231.25;" xml:space="preserve">
<style type="text/css">
	.st0{fill:#FFFFFF;}
	.st1{fill:#929497;}
</style>
<rect width="2000" height="231.25"/>
<path class="st0" d="M144.75,101.49c-2.03-0.76-4.71-1.62-8.04-2.57c-3.33-0.96-7.11-1.86-11.32-2.72
	c-4.22-0.86-8.8-1.58-13.74-2.15c-4.95-0.58-10.02-0.87-15.23-0.87c-4.17,0-7.72,0.1-10.66,0.3c-2.94,0.2-5.41,0.46-7.42,0.78
	c-2,0.32-3.59,0.69-4.76,1.11c-1.17,0.42-2.07,0.85-2.69,1.29s-1.03,0.88-1.21,1.32c-0.18,0.44-0.27,0.84-0.27,1.2
	c0,1.2,0.78,2.24,2.34,3.14s3.7,1.7,6.4,2.39c2.71,0.7,5.86,1.36,9.45,1.97c3.59,0.62,7.4,1.26,11.44,1.92
	c4.03,0.66,8.2,1.38,12.49,2.15c4.29,0.78,8.46,1.69,12.49,2.72c4.03,1.04,7.85,2.24,11.44,3.62s6.74,2.98,9.45,4.82
	c2.71,1.83,4.84,3.95,6.4,6.34c1.56,2.39,2.34,5.13,2.34,8.2c0,3.95-0.91,7.34-2.73,10.17c-1.82,2.83-4.26,5.23-7.3,7.18
	c-3.05,1.96-6.57,3.52-10.58,4.7c-4.01,1.18-8.21,2.08-12.61,2.72c-4.4,0.64-8.85,1.06-13.35,1.26c-4.5,0.2-8.78,0.3-12.84,0.3
	c-10.62,0-20.45-0.67-29.48-2c-9.03-1.33-17.01-3-23.93-5v-19.62c7.13,3.03,15.27,5.41,24.4,7.12c9.14,1.71,18.91,2.57,29.32,2.57
	c6.14,0,11.15-0.25,15.03-0.75c3.88-0.5,6.91-1.14,9.1-1.91c2.19-0.78,3.67-1.63,4.45-2.54c0.78-0.92,1.17-1.79,1.17-2.63
	c0-1.32-0.78-2.46-2.34-3.44c-1.56-0.98-3.7-1.83-6.4-2.57c-2.71-0.74-5.86-1.42-9.45-2.03s-7.41-1.24-11.44-1.85
	c-4.03-0.62-8.19-1.29-12.45-2c-4.27-0.72-8.42-1.56-12.45-2.54c-4.03-0.98-7.85-2.11-11.44-3.41s-6.74-2.83-9.45-4.61
	c-2.71-1.77-4.84-3.83-6.4-6.16s-2.34-5.04-2.34-8.11c0-3.63,0.83-6.76,2.5-9.39c1.67-2.63,3.92-4.88,6.75-6.73
	c2.84-1.85,6.12-3.36,9.84-4.52c3.72-1.16,7.64-2.05,11.75-2.69c4.11-0.64,8.28-1.08,12.49-1.32s8.22-0.36,12.02-0.36
	c4.16,0,8.44,0.16,12.84,0.48c4.4,0.32,8.73,0.77,13,1.35c4.27,0.58,8.39,1.25,12.38,2c3.98,0.76,7.66,1.55,11.05,2.39V101.49z"/>
<path class="st0" d="M267.26,144.99h-59.81l-10.07,15.56h-32.33l56.14-82.2h32.33l56.14,82.2h-32.33L267.26,144.99z M217.84,128.95
	h39.2l-19.52-30.27L217.84,128.95z"/>
<path class="st0" d="M458.64,119.38c0,5.26-0.75,9.94-2.26,14.03c-1.51,4.09-3.63,7.65-6.36,10.68c-2.73,3.03-6.01,5.6-9.84,7.72
	s-8.08,3.81-12.77,5.08c-4.68,1.28-9.73,2.2-15.15,2.78c-5.41,0.58-11.06,0.87-16.94,0.87h-68.09v-82.2h67.93
	c5.88,0,11.53,0.29,16.94,0.87c5.41,0.58,10.48,1.51,15.19,2.78c4.71,1.28,8.99,2.96,12.84,5.06c3.85,2.09,7.14,4.67,9.88,7.72
	c2.73,3.05,4.85,6.61,6.36,10.68S458.64,114.16,458.64,119.38z M429.44,119.38c0-3.95-0.66-7.38-1.99-10.29
	c-1.33-2.91-3.46-5.31-6.4-7.21c-2.94-1.89-6.78-3.31-11.52-4.25c-4.74-0.94-10.52-1.41-17.33-1.41h-36v46.43h36
	c6.82,0,12.6-0.47,17.33-1.41c4.74-0.94,8.58-2.37,11.52-4.31c2.94-1.93,5.08-4.36,6.4-7.27
	C428.78,126.76,429.44,123.33,429.44,119.38z"/>
<path class="st0" d="M485.04,160.54v-82.2h108.61v17.53h-78.86v13.58h74.8v17.53h-74.8v16.03h79.96v17.53H485.04z"/>
<path class="st1" d="M623.94,160.54v-82.2h9.76v82.2H623.94z"/>
<path class="st1" d="M773.71,160.54v-54.26c0-4.55-0.79-8.29-2.38-11.22c-1.59-2.93-3.85-5.25-6.79-6.97
	c-2.94-1.71-6.52-2.91-10.74-3.59c-4.22-0.68-8.95-1.02-14.21-1.02c-6.09,0-12.06,0.57-17.92,1.71s-11.39,2.57-16.59,4.31
	c-5.21,1.73-9.99,3.66-14.37,5.77c-4.37,2.11-8.07,4.15-11.09,6.1v59.17h-9.76v-82.2h9.76v14.42c3.64-1.75,7.67-3.6,12.06-5.53
	c4.4-1.93,9.14-3.71,14.21-5.33s10.5-2.94,16.28-3.98c5.78-1.04,11.87-1.56,18.27-1.56c7.24,0,13.55,0.67,18.94,2
	s9.86,3.23,13.43,5.68c3.57,2.45,6.23,5.42,8,8.91c1.77,3.49,2.65,7.39,2.65,11.7v55.88H773.71z"/>
<path class="st1" d="M922.92,160.54v-54.26c0-4.55-0.79-8.29-2.38-11.22c-1.59-2.93-3.85-5.25-6.79-6.97
	c-2.94-1.71-6.52-2.91-10.74-3.59c-4.22-0.68-8.95-1.02-14.21-1.02c-6.09,0-12.06,0.57-17.92,1.71s-11.39,2.57-16.59,4.31
	c-5.21,1.73-9.99,3.66-14.37,5.77c-4.37,2.11-8.07,4.15-11.09,6.1v59.17h-9.76v-82.2h9.76v14.42c3.64-1.75,7.67-3.6,12.06-5.53
	c4.4-1.93,9.14-3.71,14.21-5.33s10.5-2.94,16.28-3.98c5.78-1.04,11.87-1.56,18.27-1.56c7.24,0,13.55,0.67,18.94,2
	s9.86,3.23,13.43,5.68c3.57,2.45,6.23,5.42,8,8.91c1.77,3.49,2.65,7.39,2.65,11.7v55.88H922.92z"/>
<path class="st1" d="M1096.97,119.5c0,7.38-1.74,13.75-5.23,19.12c-3.49,5.37-8.27,9.79-14.36,13.28
	c-6.09,3.49-13.27,6.07-21.54,7.75c-8.27,1.67-17.19,2.51-26.77,2.51c-9.63,0-18.6-0.84-26.92-2.51s-15.56-4.26-21.69-7.75
	c-6.14-3.49-10.95-7.92-14.44-13.28c-3.49-5.36-5.23-11.74-5.23-19.12c0-4.91,0.81-9.36,2.42-13.37c1.61-4.01,3.88-7.6,6.79-10.77
	s6.44-5.91,10.57-8.23s8.74-4.24,13.81-5.77c5.07-1.54,10.52-2.67,16.35-3.41s11.94-1.11,18.34-1.11c9.57,0,18.49,0.84,26.77,2.51
	c8.27,1.68,15.45,4.26,21.54,7.75c6.09,3.49,10.87,7.92,14.36,13.28S1096.97,112.12,1096.97,119.5z M1086.97,119.5
	c0-5.82-1.24-10.97-3.71-15.44c-2.47-4.47-6.13-8.23-10.98-11.28c-4.84-3.05-10.88-5.36-18.09-6.94
	c-7.21-1.58-15.59-2.36-25.12-2.36c-9.53,0-17.93,0.8-25.2,2.39c-7.27,1.6-13.35,3.92-18.24,6.97c-4.9,3.05-8.59,6.82-11.09,11.31
	c-2.5,4.49-3.75,9.6-3.75,15.35c0,5.82,1.25,10.97,3.75,15.44c2.5,4.47,6.2,8.23,11.09,11.28c4.9,3.05,10.98,5.37,18.24,6.94
	c7.27,1.58,15.67,2.36,25.2,2.36c9.53,0,17.91-0.79,25.12-2.36c7.21-1.58,13.24-3.89,18.09-6.94c4.84-3.05,8.5-6.81,10.98-11.28
	C1085.73,130.47,1086.97,125.32,1086.97,119.5z"/>
<path class="st1" d="M1178.52,160.54h-14.6l-53.56-82.2h10.93l50.21,77.06l50.21-77.06h10.85L1178.52,160.54z"/>
<path class="st1" d="M1351.98,160.54v-9.09c-3.75,1.56-8,2.99-12.77,4.31c-4.76,1.32-9.79,2.45-15.07,3.41
	c-5.28,0.96-10.71,1.69-16.28,2.21c-5.57,0.52-11.04,0.78-16.4,0.78c-6.98,0-13.23-0.48-18.78-1.44s-10.24-2.38-14.09-4.28
	c-3.85-1.89-6.82-4.25-8.9-7.06c-2.08-2.81-3.12-6.07-3.12-9.78c0-3.67,1.21-6.91,3.63-9.72c2.42-2.81,5.87-5.26,10.35-7.36
	c4.48-2.09,9.88-3.87,16.2-5.32c6.32-1.46,13.39-2.69,21.2-3.71c7.81-1.02,16.25-1.85,25.34-2.51c9.08-0.66,18.65-1.21,28.69-1.65
	v-6.28c0-2.55-0.62-4.81-1.87-6.76c-1.25-1.95-2.99-3.66-5.23-5.12c-2.24-1.46-4.87-2.67-7.89-3.65c-3.02-0.98-6.29-1.76-9.8-2.36
	s-7.21-1.03-11.09-1.29c-3.88-0.26-7.77-0.39-11.67-0.39c-5.26,0-10.05,0.2-14.37,0.6c-4.32,0.4-8.35,0.95-12.1,1.65
	c-3.75,0.7-7.34,1.51-10.78,2.42c-3.44,0.92-6.9,1.9-10.38,2.93v-8.73c7.23-1.48,14.95-2.76,23.15-3.86
	c8.2-1.1,16.9-1.65,26.12-1.65c7.81,0,15.1,0.51,21.86,1.53c6.77,1.02,12.65,2.64,17.65,4.88s8.93,5.12,11.79,8.64
	c2.86,3.53,4.29,7.83,4.29,12.89v55.76H1351.98z M1351.98,115.97c-17.04,0.72-31.58,1.73-43.64,3.05
	c-12.06,1.32-21.92,2.93-29.58,4.85c-7.66,1.92-13.27,4.15-16.84,6.7c-3.57,2.55-5.35,5.44-5.35,8.67c0,2.63,0.87,4.97,2.62,7
	c1.74,2.03,4.26,3.74,7.54,5.12s7.27,2.41,11.96,3.11c4.69,0.7,9.95,1.05,15.79,1.05c3.44,0,6.99-0.15,10.67-0.45
	c3.67-0.3,7.33-0.72,10.98-1.26c3.65-0.54,7.24-1.18,10.78-1.92c3.54-0.74,6.88-1.54,10-2.42c3.13-0.88,5.98-1.81,8.56-2.81
	s4.75-2.01,6.53-3.05V115.97z"/>
<path class="st1" d="M1438.81,85.16v75.38h-9.68V85.16h-48.8v-6.82h107.29v6.82H1438.81z"/>
<path class="st1" d="M1508.69,160.54v-82.2h9.76v82.2H1508.69z"/>
<path class="st1" d="M1683.28,119.5c0,7.38-1.74,13.75-5.23,19.12c-3.49,5.37-8.27,9.79-14.36,13.28
	c-6.09,3.49-13.27,6.07-21.54,7.75c-8.27,1.67-17.19,2.51-26.77,2.51c-9.63,0-18.6-0.84-26.92-2.51s-15.56-4.26-21.69-7.75
	c-6.14-3.49-10.95-7.92-14.44-13.28c-3.49-5.36-5.23-11.74-5.23-19.12c0-4.91,0.81-9.36,2.42-13.37c1.61-4.01,3.88-7.6,6.79-10.77
	s6.44-5.91,10.57-8.23s8.74-4.24,13.81-5.77c5.07-1.54,10.52-2.67,16.35-3.41s11.94-1.11,18.34-1.11c9.57,0,18.49,0.84,26.77,2.51
	c8.27,1.68,15.45,4.26,21.54,7.75c6.09,3.49,10.87,7.92,14.36,13.28S1683.28,112.12,1683.28,119.5z M1673.29,119.5
	c0-5.82-1.24-10.97-3.71-15.44c-2.47-4.47-6.13-8.23-10.98-11.28c-4.84-3.05-10.88-5.36-18.09-6.94
	c-7.21-1.58-15.59-2.36-25.12-2.36c-9.53,0-17.93,0.8-25.2,2.39c-7.27,1.6-13.35,3.92-18.24,6.97c-4.9,3.05-8.59,6.82-11.09,11.31
	c-2.5,4.49-3.75,9.6-3.75,15.35c0,5.82,1.25,10.97,3.75,15.44c2.5,4.47,6.2,8.23,11.09,11.28c4.9,3.05,10.98,5.37,18.24,6.94
	c7.27,1.58,15.67,2.36,25.2,2.36c9.53,0,17.91-0.79,25.12-2.36c7.21-1.58,13.24-3.89,18.09-6.94c4.84-3.05,8.5-6.81,10.98-11.28
	C1672.05,130.47,1673.29,125.32,1673.29,119.5z"/>
<path class="st1" d="M1815.79,160.54v-54.26c0-4.55-0.79-8.29-2.38-11.22c-1.59-2.93-3.85-5.25-6.79-6.97
	c-2.94-1.71-6.52-2.91-10.74-3.59c-4.22-0.68-8.95-1.02-14.21-1.02c-6.09,0-12.06,0.57-17.92,1.71s-11.39,2.57-16.59,4.31
	c-5.21,1.73-9.99,3.66-14.37,5.77c-4.37,2.11-8.07,4.15-11.09,6.1v59.17h-9.76v-82.2h9.76v14.42c3.64-1.75,7.67-3.6,12.06-5.53
	c4.4-1.93,9.14-3.71,14.21-5.33s10.5-2.94,16.28-3.98c5.78-1.04,11.87-1.56,18.27-1.56c7.24,0,13.55,0.67,18.94,2
	s9.86,3.23,13.43,5.68c3.57,2.45,6.23,5.42,8,8.91c1.77,3.49,2.65,7.39,2.65,11.7v55.88H1815.79z"/>
<path class="st1" d="M1947.83,90.48c-2.03-0.76-4.38-1.56-7.03-2.42c-2.66-0.86-5.69-1.62-9.11-2.3c-3.41-0.68-7.26-1.25-11.53-1.71
	c-4.27-0.46-9.01-0.69-14.22-0.69c-6.31,0-11.92,0.28-16.84,0.84c-4.92,0.56-9.09,1.43-12.51,2.6c-3.41,1.18-6.02,2.66-7.82,4.46
	c-1.8,1.79-2.7,3.93-2.7,6.4c0,2.07,0.85,3.89,2.54,5.44s3.99,2.93,6.88,4.13c2.89,1.2,6.28,2.28,10.16,3.26
	c3.88,0.98,8,1.89,12.35,2.75c4.35,0.86,8.83,1.73,13.44,2.6c4.61,0.88,9.09,1.83,13.44,2.84c4.35,1.02,8.47,2.15,12.35,3.41
	c3.88,1.26,7.27,2.72,10.16,4.4s5.18,3.59,6.88,5.74c1.69,2.15,2.54,4.65,2.54,7.48c0,3.07-0.75,5.75-2.26,8.05
	c-1.51,2.29-3.55,4.27-6.13,5.92c-2.58,1.66-5.6,3.03-9.06,4.13c-3.46,1.1-7.16,1.96-11.09,2.6c-3.93,0.64-7.99,1.09-12.18,1.35
	c-4.19,0.26-8.32,0.39-12.38,0.39c-9.32,0-17.76-0.52-25.34-1.56c-7.57-1.04-14.8-2.45-21.67-4.25v-9.15
	c7.08,3.23,14.56,5.44,22.45,6.64c7.89,1.2,16.17,1.79,24.87,1.79c6.14,0,11.82-0.28,17.02-0.84c5.21-0.56,9.71-1.45,13.51-2.66
	c3.8-1.22,6.75-2.8,8.86-4.76c2.11-1.95,3.16-4.35,3.16-7.18c0-2.27-0.85-4.27-2.54-5.98c-1.69-1.71-3.98-3.22-6.87-4.52
	c-2.89-1.3-6.27-2.44-10.15-3.44c-3.88-1-7.98-1.92-12.3-2.78c-4.32-0.86-8.78-1.69-13.39-2.51c-4.61-0.82-9.07-1.71-13.39-2.66
	c-4.32-0.96-8.42-2.03-12.3-3.23c-3.88-1.2-7.26-2.6-10.15-4.22c-2.89-1.62-5.18-3.48-6.87-5.59s-2.54-4.57-2.54-7.36
	c0-2.75,0.68-5.19,2.03-7.33c1.35-2.13,3.21-3.98,5.58-5.53c2.37-1.55,5.14-2.86,8.32-3.92c3.17-1.06,6.57-1.89,10.19-2.51
	c3.62-0.62,7.38-1.07,11.28-1.35c3.9-0.28,7.76-0.42,11.56-0.42c4.16,0,8.11,0.14,11.83,0.42c3.72,0.28,7.31,0.65,10.78,1.11
	c3.46,0.46,6.84,0.99,10.15,1.58c3.3,0.6,6.65,1.24,10.03,1.91V90.48z"/>
</svg>
